<svg width="64" height="64" viewBox="0 0 64 64" fill="none" xmlns="http://www.w3.org/2000/svg">
<path d="M14.5 3C12.2255 3 10.0021 3.67446 8.11095 4.9381C6.21978 6.20174 4.7458 7.99779 3.87539 10.0991C3.00498 12.2005 2.77724 14.5128 3.22097 16.7435C3.6647 18.9743 4.75997 21.0234 6.36828 22.6317C7.97658 24.24 10.0257 25.3353 12.2565 25.779C14.4872 26.2228 16.7995 25.995 18.9009 25.1246C21.0022 24.2542 22.7983 22.7802 24.0619 20.8891C25.3255 18.9979 26 16.7745 26 14.5C25.9974 11.4508 24.7849 8.52729 22.6288 6.3712C20.4727 4.2151 17.5492 3.00265 14.5 3V3ZM14.5 24C12.6211 24 10.7844 23.4428 9.22209 22.399C7.65982 21.3551 6.44218 19.8714 5.72315 18.1355C5.00412 16.3996 4.81599 14.4895 5.18255 12.6466C5.5491 10.8038 6.45389 9.11108 7.78249 7.78249C9.11109 6.45389 10.8038 5.5491 12.6466 5.18254C14.4895 4.81598 16.3996 5.00411 18.1355 5.72314C19.8714 6.44218 21.3551 7.65982 22.399 9.22208C23.4428 10.7844 24 12.6211 24 14.5C23.9974 17.0187 22.9956 19.4336 21.2146 21.2146C19.4336 22.9956 17.0187 23.9974 14.5 24V24Z" fill="#e3e3e3" id="id_109"></path>
<path d="M49.5 26C51.7745 26 53.9979 25.3255 55.8891 24.0619C57.7802 22.7983 59.2542 21.0022 60.1246 18.9009C60.995 16.7995 61.2228 14.4872 60.779 12.2565C60.3353 10.0257 59.24 7.97658 57.6317 6.36828C56.0234 4.75997 53.9743 3.6647 51.7435 3.22097C49.5128 2.77724 47.2005 3.00498 45.0991 3.87539C42.9978 4.7458 41.2017 6.21978 39.9381 8.11095C38.6745 10.0021 38 12.2255 38 14.5C38.0026 17.5492 39.2151 20.4727 41.3712 22.6288C43.5273 24.7849 46.4508 25.9974 49.5 26V26ZM49.5 5.00001C51.3789 5.00001 53.2156 5.55717 54.7779 6.60104C56.3402 7.64492 57.5578 9.12861 58.2769 10.8645C58.9959 12.6004 59.184 14.5105 58.8175 16.3534C58.4509 18.1962 57.5461 19.8889 56.2175 21.2175C54.8889 22.5461 53.1962 23.4509 51.3534 23.8175C49.5105 24.184 47.6004 23.9959 45.8645 23.2769C44.1286 22.5578 42.6449 21.3402 41.601 19.7779C40.5572 18.2157 40 16.3789 40 14.5C40.0026 11.9813 41.0044 9.56644 42.7854 7.78541C44.5664 6.00439 46.9813 5.00265 49.5 5.00001V5.00001Z" fill="#e3e3e3" id="id_110"></path>
<path d="M14.5 38C12.2255 38 10.0021 38.6745 8.11095 39.9381C6.21978 41.2017 4.7458 42.9978 3.87539 45.0991C3.00498 47.2005 2.77724 49.5128 3.22097 51.7435C3.6647 53.9743 4.75997 56.0234 6.36828 57.6317C7.97658 59.24 10.0257 60.3353 12.2565 60.779C14.4872 61.2228 16.7995 60.995 18.9009 60.1246C21.0022 59.2542 22.7983 57.7802 24.0619 55.8891C25.3255 53.9979 26 51.7745 26 49.5C25.9974 46.4508 24.7849 43.5273 22.6288 41.3712C20.4727 39.2151 17.5492 38.0026 14.5 38V38ZM14.5 59C12.6211 59 10.7844 58.4428 9.22209 57.399C7.65982 56.3551 6.44218 54.8714 5.72315 53.1355C5.00412 51.3996 4.81599 49.4895 5.18255 47.6466C5.5491 45.8038 6.45389 44.1111 7.78249 42.7825C9.11109 41.4539 10.8038 40.5491 12.6466 40.1825C14.4895 39.816 16.3996 40.0041 18.1355 40.7231C19.8714 41.4422 21.3551 42.6598 22.399 44.2221C23.4428 45.7844 24 47.6211 24 49.5C23.9974 52.0187 22.9956 54.4336 21.2146 56.2146C19.4336 57.9956 17.0187 58.9974 14.5 59V59Z" fill="#e3e3e3" id="id_111"></path>
<path d="M49.5 38C47.2255 38 45.0021 38.6745 43.1109 39.9381C41.2198 41.2017 39.7458 42.9978 38.8754 45.0991C38.005 47.2005 37.7772 49.5128 38.221 51.7435C38.6647 53.9743 39.76 56.0234 41.3683 57.6317C42.9766 59.24 45.0257 60.3353 47.2565 60.779C49.4872 61.2228 51.7995 60.995 53.9009 60.1246C56.0022 59.2542 57.7983 57.7802 59.0619 55.8891C60.3255 53.9979 61 51.7745 61 49.5C60.9974 46.4508 59.7849 43.5273 57.6288 41.3712C55.4727 39.2151 52.5492 38.0026 49.5 38V38ZM49.5 59C47.6211 59 45.7844 58.4428 44.2221 57.399C42.6598 56.3551 41.4422 54.8714 40.7231 53.1355C40.0041 51.3996 39.816 49.4895 40.1825 47.6466C40.5491 45.8038 41.4539 44.1111 42.7825 42.7825C44.1111 41.4539 45.8038 40.5491 47.6466 40.1825C49.4895 39.816 51.3996 40.0041 53.1355 40.7231C54.8714 41.4422 56.3551 42.6598 57.399 44.2221C58.4428 45.7844 59 47.6211 59 49.5C58.9974 52.0187 57.9956 54.4336 56.2146 56.2146C54.4336 57.9956 52.0187 58.9974 49.5 59V59Z" fill="#e3e3e3" id="id_112"></path>
</svg>